<mxfile host="app.diagrams.net" modified="2023-10-18T07:06:16.417Z" agent="Mozilla/5.0 (Windows NT 10.0; Win64; x64) AppleWebKit/537.36 (KHTML, like Gecko) Chrome/117.0.0.0 Safari/537.36" etag="g6dsN-MUC1T8Z5WsHrhV" version="22.0.4" type="device">
  <diagram name="Page-1" id="h-yLGayiNAj8bD5q3iM7">
    <mxGraphModel dx="668" dy="463" grid="1" gridSize="10" guides="1" tooltips="1" connect="1" arrows="1" fold="1" page="1" pageScale="1" pageWidth="850" pageHeight="1100" math="0" shadow="0">
      <root>
        <mxCell id="0" />
        <mxCell id="1" parent="0" />
        <mxCell id="t3Z1-2oYZb_jNFtMePi--1" value="Fesztivál" style="ellipse;whiteSpace=wrap;html=1;" vertex="1" parent="1">
          <mxGeometry x="470" y="20" width="120" height="80" as="geometry" />
        </mxCell>
        <mxCell id="t3Z1-2oYZb_jNFtMePi--2" value="Résztvevő" style="ellipse;shape=doubleEllipse;whiteSpace=wrap;html=1;" vertex="1" parent="1">
          <mxGeometry x="480" y="150" width="100" height="60" as="geometry" />
        </mxCell>
        <mxCell id="t3Z1-2oYZb_jNFtMePi--3" value="Fellépő" style="ellipse;shape=doubleEllipse;whiteSpace=wrap;html=1;" vertex="1" parent="1">
          <mxGeometry x="290" y="150" width="100" height="60" as="geometry" />
        </mxCell>
        <mxCell id="t3Z1-2oYZb_jNFtMePi--4" value="Bár" style="ellipse;shape=doubleEllipse;whiteSpace=wrap;html=1;" vertex="1" parent="1">
          <mxGeometry x="660" y="150" width="100" height="60" as="geometry" />
        </mxCell>
        <mxCell id="t3Z1-2oYZb_jNFtMePi--5" value="Tulajdonos" style="ellipse;shape=doubleEllipse;whiteSpace=wrap;html=1;" vertex="1" parent="1">
          <mxGeometry x="80" y="150" width="100" height="60" as="geometry" />
        </mxCell>
        <mxCell id="t3Z1-2oYZb_jNFtMePi--6" value="Alkalmazott" style="ellipse;shape=doubleEllipse;whiteSpace=wrap;html=1;" vertex="1" parent="1">
          <mxGeometry x="840" y="150" width="100" height="60" as="geometry" />
        </mxCell>
        <mxCell id="t3Z1-2oYZb_jNFtMePi--7" value="" style="endArrow=none;html=1;rounded=0;" edge="1" parent="1" source="t3Z1-2oYZb_jNFtMePi--5" target="t3Z1-2oYZb_jNFtMePi--1">
          <mxGeometry width="50" height="50" relative="1" as="geometry">
            <mxPoint x="500" y="420" as="sourcePoint" />
            <mxPoint x="550" y="370" as="targetPoint" />
          </mxGeometry>
        </mxCell>
        <mxCell id="t3Z1-2oYZb_jNFtMePi--9" value="" style="endArrow=none;html=1;rounded=0;" edge="1" parent="1" source="t3Z1-2oYZb_jNFtMePi--3" target="t3Z1-2oYZb_jNFtMePi--1">
          <mxGeometry width="50" height="50" relative="1" as="geometry">
            <mxPoint x="500" y="420" as="sourcePoint" />
            <mxPoint x="550" y="370" as="targetPoint" />
          </mxGeometry>
        </mxCell>
        <mxCell id="t3Z1-2oYZb_jNFtMePi--10" value="" style="endArrow=none;html=1;rounded=0;" edge="1" parent="1" source="t3Z1-2oYZb_jNFtMePi--2" target="t3Z1-2oYZb_jNFtMePi--1">
          <mxGeometry width="50" height="50" relative="1" as="geometry">
            <mxPoint x="500" y="420" as="sourcePoint" />
            <mxPoint x="550" y="370" as="targetPoint" />
          </mxGeometry>
        </mxCell>
        <mxCell id="t3Z1-2oYZb_jNFtMePi--11" value="" style="endArrow=none;html=1;rounded=0;" edge="1" parent="1" source="t3Z1-2oYZb_jNFtMePi--1" target="t3Z1-2oYZb_jNFtMePi--4">
          <mxGeometry width="50" height="50" relative="1" as="geometry">
            <mxPoint x="500" y="420" as="sourcePoint" />
            <mxPoint x="550" y="370" as="targetPoint" />
          </mxGeometry>
        </mxCell>
        <mxCell id="t3Z1-2oYZb_jNFtMePi--12" value="" style="endArrow=none;html=1;rounded=0;" edge="1" parent="1" source="t3Z1-2oYZb_jNFtMePi--1" target="t3Z1-2oYZb_jNFtMePi--6">
          <mxGeometry width="50" height="50" relative="1" as="geometry">
            <mxPoint x="500" y="420" as="sourcePoint" />
            <mxPoint x="550" y="370" as="targetPoint" />
          </mxGeometry>
        </mxCell>
        <mxCell id="t3Z1-2oYZb_jNFtMePi--13" value="T_ID" style="rhombus;whiteSpace=wrap;html=1;" vertex="1" parent="1">
          <mxGeometry y="232.5" width="40" height="40" as="geometry" />
        </mxCell>
        <mxCell id="t3Z1-2oYZb_jNFtMePi--17" value="alapítás" style="ellipse;whiteSpace=wrap;html=1;" vertex="1" parent="1">
          <mxGeometry x="170" y="235" width="50" height="35" as="geometry" />
        </mxCell>
        <mxCell id="t3Z1-2oYZb_jNFtMePi--18" value="adószám" style="ellipse;whiteSpace=wrap;html=1;" vertex="1" parent="1">
          <mxGeometry x="110" y="235" width="50" height="35" as="geometry" />
        </mxCell>
        <mxCell id="t3Z1-2oYZb_jNFtMePi--19" value="név" style="ellipse;whiteSpace=wrap;html=1;" vertex="1" parent="1">
          <mxGeometry x="50" y="235" width="50" height="35" as="geometry" />
        </mxCell>
        <mxCell id="t3Z1-2oYZb_jNFtMePi--21" value="bevétel" style="ellipse;whiteSpace=wrap;html=1;" vertex="1" parent="1">
          <mxGeometry x="230" y="237.5" width="50" height="35" as="geometry" />
        </mxCell>
        <mxCell id="t3Z1-2oYZb_jNFtMePi--22" value="" style="endArrow=none;html=1;rounded=0;" edge="1" parent="1" source="t3Z1-2oYZb_jNFtMePi--5" target="t3Z1-2oYZb_jNFtMePi--13">
          <mxGeometry width="50" height="50" relative="1" as="geometry">
            <mxPoint x="290" y="340" as="sourcePoint" />
            <mxPoint x="340" y="290" as="targetPoint" />
          </mxGeometry>
        </mxCell>
        <mxCell id="t3Z1-2oYZb_jNFtMePi--23" value="" style="endArrow=none;html=1;rounded=0;" edge="1" parent="1" source="t3Z1-2oYZb_jNFtMePi--19" target="t3Z1-2oYZb_jNFtMePi--5">
          <mxGeometry width="50" height="50" relative="1" as="geometry">
            <mxPoint x="290" y="340" as="sourcePoint" />
            <mxPoint x="340" y="290" as="targetPoint" />
          </mxGeometry>
        </mxCell>
        <mxCell id="t3Z1-2oYZb_jNFtMePi--24" value="" style="endArrow=none;html=1;rounded=0;" edge="1" parent="1" source="t3Z1-2oYZb_jNFtMePi--18" target="t3Z1-2oYZb_jNFtMePi--5">
          <mxGeometry width="50" height="50" relative="1" as="geometry">
            <mxPoint x="290" y="340" as="sourcePoint" />
            <mxPoint x="340" y="290" as="targetPoint" />
          </mxGeometry>
        </mxCell>
      </root>
    </mxGraphModel>
  </diagram>
</mxfile>
